<svg width="138" height="50" viewBox="0 0 138 50" fill="none" xmlns="http://www.w3.org/2000/svg">
<path d="M8.448 38.8897C8.488 38.9857 8.508 39.0657 8.508 39.1297C8.508 39.2817 8.444 39.4097 8.316 39.5137C8.196 39.6177 8.06 39.6697 7.908 39.6697C7.804 39.6697 7.704 39.6417 7.608 39.5857C7.52 39.5217 7.452 39.4337 7.404 39.3217L6.612 37.5217H2.22L1.428 39.3217C1.38 39.4337 1.308 39.5217 1.212 39.5857C1.116 39.6417 1.016 39.6697 0.912 39.6697C0.752 39.6697 0.608 39.6177 0.48 39.5137C0.36 39.4097 0.3 39.2817 0.3 39.1297C0.3 39.0657 0.32 38.9857 0.36 38.8897L3.744 31.4857C3.8 31.3577 3.888 31.2577 4.008 31.1857C4.136 31.1137 4.268 31.0777 4.404 31.0777C4.54 31.0777 4.668 31.1137 4.788 31.1857C4.916 31.2577 5.008 31.3577 5.064 31.4857L8.448 38.8897ZM2.664 36.5377H6.18L4.416 32.5657L2.664 36.5377ZM11.6105 39.6937C10.7945 39.6937 10.1265 39.5257 9.60647 39.1897C9.46247 39.1017 9.35847 39.0097 9.29447 38.9137C9.23847 38.8177 9.21047 38.7097 9.21047 38.5897C9.21047 38.4617 9.24647 38.3537 9.31847 38.2657C9.39047 38.1777 9.48247 38.1337 9.59447 38.1337C9.69847 38.1337 9.86247 38.1977 10.0865 38.3257C10.3265 38.4537 10.5585 38.5577 10.7825 38.6377C11.0145 38.7177 11.3025 38.7577 11.6465 38.7577C12.0305 38.7577 12.3305 38.6897 12.5465 38.5537C12.7625 38.4177 12.8705 38.2257 12.8705 37.9777C12.8705 37.8177 12.8265 37.6897 12.7385 37.5937C12.6585 37.4977 12.5145 37.4137 12.3065 37.3417C12.0985 37.2617 11.7905 37.1777 11.3825 37.0897C10.6785 36.9377 10.1705 36.7337 9.85847 36.4777C9.55447 36.2137 9.40247 35.8577 9.40247 35.4097C9.40247 35.0657 9.50247 34.7577 9.70247 34.4857C9.90247 34.2057 10.1785 33.9897 10.5305 33.8377C10.8825 33.6857 11.2825 33.6097 11.7305 33.6097C12.0505 33.6097 12.3625 33.6537 12.6665 33.7417C12.9705 33.8217 13.2385 33.9417 13.4705 34.1017C13.7345 34.2777 13.8665 34.4817 13.8665 34.7137C13.8665 34.8417 13.8265 34.9497 13.7465 35.0377C13.6745 35.1257 13.5865 35.1697 13.4825 35.1697C13.4105 35.1697 13.3385 35.1537 13.2665 35.1217C13.1945 35.0897 13.0985 35.0377 12.9785 34.9657C12.7625 34.8377 12.5585 34.7377 12.3665 34.6657C12.1825 34.5937 11.9505 34.5577 11.6705 34.5577C11.3345 34.5577 11.0625 34.6297 10.8545 34.7737C10.6545 34.9177 10.5545 35.1137 10.5545 35.3617C10.5545 35.5857 10.6465 35.7617 10.8305 35.8897C11.0225 36.0097 11.3785 36.1257 11.8985 36.2377C12.4345 36.3497 12.8545 36.4777 13.1585 36.6217C13.4625 36.7657 13.6785 36.9457 13.8065 37.1617C13.9425 37.3697 14.0105 37.6377 14.0105 37.9657C14.0105 38.4857 13.7905 38.9057 13.3505 39.2257C12.9185 39.5377 12.3385 39.6937 11.6105 39.6937ZM17.3995 39.6937C16.5835 39.6937 15.9155 39.5257 15.3955 39.1897C15.2515 39.1017 15.1475 39.0097 15.0835 38.9137C15.0275 38.8177 14.9995 38.7097 14.9995 38.5897C14.9995 38.4617 15.0355 38.3537 15.1075 38.2657C15.1795 38.1777 15.2715 38.1337 15.3835 38.1337C15.4875 38.1337 15.6515 38.1977 15.8755 38.3257C16.1155 38.4537 16.3475 38.5577 16.5715 38.6377C16.8035 38.7177 17.0915 38.7577 17.4355 38.7577C17.8195 38.7577 18.1195 38.6897 18.3355 38.5537C18.5515 38.4177 18.6595 38.2257 18.6595 37.9777C18.6595 37.8177 18.6155 37.6897 18.5275 37.5937C18.4475 37.4977 18.3035 37.4137 18.0955 37.3417C17.8875 37.2617 17.5795 37.1777 17.1715 37.0897C16.4675 36.9377 15.9595 36.7337 15.6475 36.4777C15.3435 36.2137 15.1915 35.8577 15.1915 35.4097C15.1915 35.0657 15.2915 34.7577 15.4915 34.4857C15.6915 34.2057 15.9675 33.9897 16.3195 33.8377C16.6715 33.6857 17.0715 33.6097 17.5195 33.6097C17.8395 33.6097 18.1515 33.6537 18.4555 33.7417C18.7595 33.8217 19.0275 33.9417 19.2595 34.1017C19.5235 34.2777 19.6555 34.4817 19.6555 34.7137C19.6555 34.8417 19.6155 34.9497 19.5355 35.0377C19.4635 35.1257 19.3755 35.1697 19.2715 35.1697C19.1995 35.1697 19.1275 35.1537 19.0555 35.1217C18.9835 35.0897 18.8875 35.0377 18.7675 34.9657C18.5515 34.8377 18.3475 34.7377 18.1555 34.6657C17.9715 34.5937 17.7395 34.5577 17.4595 34.5577C17.1235 34.5577 16.8515 34.6297 16.6435 34.7737C16.4435 34.9177 16.3435 35.1137 16.3435 35.3617C16.3435 35.5857 16.4355 35.7617 16.6195 35.8897C16.8115 36.0097 17.1675 36.1257 17.6875 36.2377C18.2235 36.3497 18.6435 36.4777 18.9475 36.6217C19.2515 36.7657 19.4675 36.9457 19.5955 37.1617C19.7315 37.3697 19.7995 37.6377 19.7995 37.9657C19.7995 38.4857 19.5795 38.9057 19.1395 39.2257C18.7075 39.5377 18.1275 39.6937 17.3995 39.6937ZM21.7606 39.6697C21.5846 39.6697 21.4366 39.6217 21.3166 39.5257C21.2046 39.4297 21.1486 39.2857 21.1486 39.0937V34.2217C21.1486 34.0297 21.2046 33.8857 21.3166 33.7897C21.4366 33.6857 21.5846 33.6337 21.7606 33.6337C21.9366 33.6337 22.0806 33.6857 22.1926 33.7897C22.3046 33.8857 22.3606 34.0297 22.3606 34.2217V39.0937C22.3606 39.2857 22.3046 39.4297 22.1926 39.5257C22.0806 39.6217 21.9366 39.6697 21.7606 39.6697ZM21.7606 32.4577C21.5286 32.4577 21.3446 32.3937 21.2086 32.2657C21.0726 32.1377 21.0046 31.9697 21.0046 31.7617C21.0046 31.5537 21.0726 31.3897 21.2086 31.2697C21.3446 31.1417 21.5286 31.0777 21.7606 31.0777C21.9846 31.0777 22.1646 31.1417 22.3006 31.2697C22.4446 31.3897 22.5166 31.5537 22.5166 31.7617C22.5166 31.9697 22.4486 32.1377 22.3126 32.2657C22.1766 32.3937 21.9926 32.4577 21.7606 32.4577ZM26.0948 39.6937C25.2788 39.6937 24.6108 39.5257 24.0908 39.1897C23.9468 39.1017 23.8428 39.0097 23.7788 38.9137C23.7228 38.8177 23.6948 38.7097 23.6948 38.5897C23.6948 38.4617 23.7308 38.3537 23.8028 38.2657C23.8748 38.1777 23.9668 38.1337 24.0788 38.1337C24.1828 38.1337 24.3468 38.1977 24.5708 38.3257C24.8108 38.4537 25.0428 38.5577 25.2668 38.6377C25.4988 38.7177 25.7868 38.7577 26.1308 38.7577C26.5148 38.7577 26.8148 38.6897 27.0308 38.5537C27.2468 38.4177 27.3548 38.2257 27.3548 37.9777C27.3548 37.8177 27.3108 37.6897 27.2228 37.5937C27.1428 37.4977 26.9988 37.4137 26.7908 37.3417C26.5828 37.2617 26.2748 37.1777 25.8668 37.0897C25.1628 36.9377 24.6548 36.7337 24.3428 36.4777C24.0388 36.2137 23.8868 35.8577 23.8868 35.4097C23.8868 35.0657 23.9868 34.7577 24.1868 34.4857C24.3868 34.2057 24.6628 33.9897 25.0148 33.8377C25.3668 33.6857 25.7668 33.6097 26.2148 33.6097C26.5348 33.6097 26.8468 33.6537 27.1508 33.7417C27.4548 33.8217 27.7228 33.9417 27.9548 34.1017C28.2188 34.2777 28.3508 34.4817 28.3508 34.7137C28.3508 34.8417 28.3108 34.9497 28.2308 35.0377C28.1588 35.1257 28.0708 35.1697 27.9668 35.1697C27.8948 35.1697 27.8228 35.1537 27.7508 35.1217C27.6788 35.0897 27.5828 35.0377 27.4628 34.9657C27.2468 34.8377 27.0428 34.7377 26.8508 34.6657C26.6668 34.5937 26.4348 34.5577 26.1548 34.5577C25.8188 34.5577 25.5468 34.6297 25.3388 34.7737C25.1388 34.9177 25.0388 35.1137 25.0388 35.3617C25.0388 35.5857 25.1308 35.7617 25.3148 35.8897C25.5068 36.0097 25.8628 36.1257 26.3828 36.2377C26.9188 36.3497 27.3388 36.4777 27.6428 36.6217C27.9468 36.7657 28.1628 36.9457 28.2908 37.1617C28.4268 37.3697 28.4948 37.6377 28.4948 37.9657C28.4948 38.4857 28.2748 38.9057 27.8348 39.2257C27.4028 39.5377 26.8228 39.6937 26.0948 39.6937ZM32.6533 38.7457C32.8293 38.7617 32.9533 38.8097 33.0253 38.8897C33.1053 38.9617 33.1453 39.0657 33.1453 39.2017C33.1453 39.3617 33.0813 39.4857 32.9533 39.5737C32.8333 39.6537 32.6533 39.6857 32.4133 39.6697L32.0893 39.6457C31.4413 39.5977 30.9573 39.4017 30.6373 39.0577C30.3173 38.7057 30.1573 38.1897 30.1573 37.5097V34.6897H29.4373C29.0853 34.6897 28.9093 34.5337 28.9093 34.2217C28.9093 34.0777 28.9533 33.9657 29.0413 33.8857C29.1373 33.7977 29.2693 33.7537 29.4373 33.7537H30.1573V32.5177C30.1573 32.3337 30.2093 32.1897 30.3133 32.0857C30.4253 31.9817 30.5733 31.9297 30.7573 31.9297C30.9413 31.9297 31.0893 31.9817 31.2013 32.0857C31.3133 32.1897 31.3693 32.3337 31.3693 32.5177V33.7537H32.5573C32.7253 33.7537 32.8533 33.7977 32.9413 33.8857C33.0373 33.9657 33.0853 34.0777 33.0853 34.2217C33.0853 34.3737 33.0373 34.4897 32.9413 34.5697C32.8533 34.6497 32.7253 34.6897 32.5573 34.6897H31.3693V37.5937C31.3693 37.9697 31.4453 38.2457 31.5973 38.4217C31.7573 38.5977 31.9973 38.6977 32.3173 38.7217L32.6533 38.7457ZM36.4758 33.6097C37.2518 33.6097 37.8278 33.8057 38.2038 34.1977C38.5878 34.5897 38.7798 35.1857 38.7798 35.9857V39.0937C38.7798 39.2777 38.7278 39.4217 38.6238 39.5257C38.5198 39.6217 38.3758 39.6697 38.1918 39.6697C38.0158 39.6697 37.8758 39.6177 37.7718 39.5137C37.6678 39.4097 37.6158 39.2697 37.6158 39.0937V38.6497C37.4638 38.9857 37.2358 39.2457 36.9318 39.4297C36.6358 39.6057 36.2878 39.6937 35.8878 39.6937C35.5038 39.6937 35.1518 39.6177 34.8318 39.4657C34.5118 39.3057 34.2598 39.0857 34.0758 38.8057C33.8998 38.5257 33.8118 38.2137 33.8118 37.8697C33.8118 37.4457 33.9198 37.1137 34.1358 36.8737C34.3598 36.6257 34.7238 36.4497 35.2278 36.3457C35.7398 36.2417 36.4398 36.1897 37.3278 36.1897H37.6038V35.8417C37.6038 35.3937 37.5118 35.0697 37.3278 34.8697C37.1438 34.6697 36.8478 34.5697 36.4398 34.5697C36.1598 34.5697 35.8958 34.6057 35.6478 34.6777C35.3998 34.7497 35.1278 34.8537 34.8318 34.9897C34.6158 35.1097 34.4638 35.1697 34.3758 35.1697C34.2558 35.1697 34.1558 35.1257 34.0758 35.0377C34.0038 34.9497 33.9678 34.8377 33.9678 34.7017C33.9678 34.5817 33.9998 34.4777 34.0638 34.3897C34.1358 34.2937 34.2478 34.2017 34.3998 34.1137C34.6798 33.9617 35.0078 33.8417 35.3838 33.7537C35.7598 33.6577 36.1238 33.6097 36.4758 33.6097ZM36.1038 38.7937C36.5438 38.7937 36.9038 38.6457 37.1838 38.3497C37.4638 38.0457 37.6038 37.6577 37.6038 37.1857V36.8737H37.3878C36.7638 36.8737 36.2838 36.9017 35.9478 36.9577C35.6118 37.0137 35.3718 37.1097 35.2278 37.2457C35.0838 37.3737 35.0118 37.5617 35.0118 37.8097C35.0118 38.0977 35.1158 38.3337 35.3238 38.5177C35.5318 38.7017 35.7918 38.7937 36.1038 38.7937ZM43.5937 33.6097C44.9937 33.6097 45.6937 34.3977 45.6937 35.9737V39.0937C45.6937 39.2777 45.6377 39.4217 45.5257 39.5257C45.4217 39.6217 45.2737 39.6697 45.0817 39.6697C44.8977 39.6697 44.7497 39.6177 44.6377 39.5137C44.5337 39.4097 44.4817 39.2697 44.4817 39.0937V36.0337C44.4817 35.5377 44.3817 35.1737 44.1817 34.9417C43.9897 34.7097 43.6857 34.5937 43.2697 34.5937C42.7817 34.5937 42.3897 34.7457 42.0937 35.0497C41.7977 35.3537 41.6497 35.7617 41.6497 36.2737V39.0937C41.6497 39.2697 41.5937 39.4097 41.4817 39.5137C41.3777 39.6177 41.2337 39.6697 41.0497 39.6697C40.8657 39.6697 40.7177 39.6177 40.6057 39.5137C40.4937 39.4097 40.4377 39.2697 40.4377 39.0937V34.2097C40.4377 34.0417 40.4937 33.9057 40.6057 33.8017C40.7257 33.6897 40.8737 33.6337 41.0497 33.6337C41.2257 33.6337 41.3657 33.6857 41.4697 33.7897C41.5737 33.8937 41.6257 34.0297 41.6257 34.1977V34.6897C41.8177 34.3377 42.0857 34.0697 42.4297 33.8857C42.7737 33.7017 43.1617 33.6097 43.5937 33.6097ZM50.2197 38.7457C50.3957 38.7617 50.5197 38.8097 50.5917 38.8897C50.6717 38.9617 50.7117 39.0657 50.7117 39.2017C50.7117 39.3617 50.6477 39.4857 50.5197 39.5737C50.3997 39.6537 50.2197 39.6857 49.9797 39.6697L49.6557 39.6457C49.0077 39.5977 48.5237 39.4017 48.2037 39.0577C47.8837 38.7057 47.7237 38.1897 47.7237 37.5097V34.6897H47.0037C46.6517 34.6897 46.4757 34.5337 46.4757 34.2217C46.4757 34.0777 46.5197 33.9657 46.6077 33.8857C46.7037 33.7977 46.8357 33.7537 47.0037 33.7537H47.7237V32.5177C47.7237 32.3337 47.7757 32.1897 47.8797 32.0857C47.9917 31.9817 48.1397 31.9297 48.3237 31.9297C48.5077 31.9297 48.6557 31.9817 48.7677 32.0857C48.8797 32.1897 48.9357 32.3337 48.9357 32.5177V33.7537H50.1237C50.2917 33.7537 50.4197 33.7977 50.5077 33.8857C50.6037 33.9657 50.6517 34.0777 50.6517 34.2217C50.6517 34.3737 50.6037 34.4897 50.5077 34.5697C50.4197 34.6497 50.2917 34.6897 50.1237 34.6897H48.9357V37.5937C48.9357 37.9697 49.0117 38.2457 49.1637 38.4217C49.3237 38.5977 49.5637 38.6977 49.8837 38.7217L50.2197 38.7457Z" fill="white"/>
<path d="M126.305 16.0328H135.172C135.805 16.0835 135.869 15.5884 135.77 15.1529C135.297 13.086 133.522 11.3591 131.247 11.3591C128.739 11.3591 126.705 13.1128 126.305 16.0328ZM137.805 16.0134C137.805 17.2183 137.102 18.0803 135.522 18.0967H126.229C126.424 21.4729 128.612 23.5399 131.33 23.5399C132.973 23.5399 134.994 22.3946 135.695 21.0077C135.954 20.4962 136.579 20.4097 137.101 20.6632C137.619 20.9167 137.665 21.4252 137.403 21.9338C136.4 24.2795 133.676 25.6038 131.33 25.6038C127.274 25.6038 124.106 22.326 124.106 17.4495C124.106 12.573 127.183 9.29813 131.242 9.29813C135.257 9.29813 137.805 13.1203 137.805 16.0134ZM116.883 17.9073V24.5778C116.883 25.1475 116.412 25.6098 115.829 25.6098C115.247 25.6098 114.775 25.1475 114.775 24.5763V10.3465C114.775 9.77534 115.247 9.31305 115.829 9.31305C116.412 9.31305 116.883 9.77534 116.883 10.3465V10.6761C116.883 11.1757 116.865 11.5858 116.844 12.0674C116.838 12.2002 116.831 12.4075 116.825 12.5536C118.111 10.5896 120.06 9.29962 122.152 9.29962C123.829 9.29962 123.75 11.3665 122.152 11.3665C118.877 11.365 116.883 14.6369 116.883 17.9073ZM104.436 23.5399C107.329 23.5399 109.297 21.206 109.297 17.451C109.297 13.6929 107.326 11.3621 104.436 11.3621C101.546 11.3621 99.5798 13.6974 99.5798 17.451C99.5798 21.2045 101.548 23.5399 104.436 23.5399ZM104.436 9.29813C108.5 9.29813 111.4 12.576 111.4 17.4465C111.4 22.3245 108.495 25.5978 104.436 25.5978C100.38 25.5978 97.4749 22.32 97.4749 17.4465C97.4749 12.573 100.377 9.29813 104.436 9.29813ZM89.1175 11.365C86.3251 11.365 84.4209 13.6959 84.4133 17.451C84.4133 21.2045 86.3175 23.5399 89.1144 23.5399C90.8042 23.5399 92.2825 22.7018 93.0658 21.1225C93.3167 20.614 93.9312 20.4052 94.4331 20.6632C94.935 20.9167 95.1403 21.5371 94.8863 22.0486C93.7669 24.3064 91.5524 25.6008 89.1144 25.6008C85.1889 25.6008 82.3768 22.323 82.3768 17.4495C82.3768 12.5745 85.1844 9.30112 89.1144 9.30112C91.5631 9.30112 93.7775 10.5955 94.8893 12.8533C95.1433 13.3619 94.941 13.9837 94.4361 14.2387C93.9342 14.4893 93.3197 14.2909 93.0734 13.7794C92.2886 12.2002 90.8133 11.365 89.1175 11.365ZM75.8627 17.0036C79.1738 18.0654 79.7593 19.8474 79.6787 21.1657C79.5296 23.695 76.9319 25.6068 73.6407 25.6068C70.8939 25.6068 68.5973 24.1871 67.6498 21.9039C67.4293 21.3745 67.6894 20.7735 68.2247 20.5573C68.7601 20.3455 69.3776 20.5961 69.5981 21.124C70.2262 22.6376 71.738 23.5428 73.6407 23.5428C76.0118 23.5428 77.5053 22.2723 77.5768 21.0435C77.595 20.6885 77.6513 19.752 75.3015 19.0004L71.3335 17.7269C68.7677 16.8947 67.5753 15.566 67.6818 13.6691C67.8202 11.1771 70.3692 9.29813 73.6133 9.29813C76.3464 9.29813 78.6566 10.7357 79.5084 12.9622C79.7137 13.4946 79.4338 14.0896 78.8909 14.288C78.3555 14.4893 77.7441 14.2149 77.5388 13.6825C77.0034 12.2703 75.4627 11.3576 73.6163 11.3576C71.5114 11.3576 69.8643 12.3985 69.7867 13.7794C69.7624 14.2149 69.7152 15.0217 72.0011 15.7628L75.8627 17.0036ZM53.2392 16.0328H62.1061C62.7388 16.0835 62.8027 15.5884 62.7038 15.1529C62.2308 13.086 60.4559 11.3591 58.1806 11.3591C55.6726 11.3591 53.6392 13.1128 53.2392 16.0328ZM64.7388 16.0134C64.7388 17.2183 64.0361 18.0803 62.4559 18.0967H53.1631C53.3578 21.4729 55.5464 23.5399 58.2658 23.5399C59.9084 23.5399 61.9297 22.3946 62.6308 21.0077C62.8894 20.4962 63.5145 20.4097 64.0361 20.6632C64.5548 20.9167 64.6004 21.4252 64.3388 21.9338C63.335 24.2795 60.611 25.6038 58.2658 25.6038C54.2095 25.6038 51.0415 22.326 51.0415 17.4495C51.0415 12.573 54.1183 9.29813 58.1776 9.29813C62.1913 9.29813 64.7388 13.1203 64.7388 16.0134ZM44.497 17.0036C47.808 18.0654 48.3936 19.8474 48.313 21.1657C48.1639 23.695 45.5662 25.6068 42.2749 25.6068C39.5282 25.6068 37.2316 24.1871 36.2841 21.9039C36.0635 21.3745 36.3236 20.7735 36.859 20.5573C37.3943 20.3455 38.0134 20.5961 38.2324 21.124C38.8605 22.6376 40.3723 23.5428 42.2749 23.5428C44.646 23.5428 46.1396 22.2723 46.2111 21.0435C46.2293 20.6885 46.2856 19.752 43.9358 19.0004L39.9677 17.7269C37.4019 16.8947 36.2095 15.566 36.316 13.6691C36.4544 11.1771 39.0035 9.29813 42.2476 9.29813C44.9806 9.29813 47.2909 10.7357 48.1426 12.9622C48.3479 13.4946 48.0681 14.0896 47.5251 14.288C46.9898 14.4893 46.3784 14.2149 46.173 13.6825C45.6377 12.2703 44.097 11.3576 42.2506 11.3576C40.1457 11.3576 38.4985 12.3985 38.421 13.7794C38.3966 14.2149 38.3495 15.0217 40.6354 15.7628L44.497 17.0036ZM26.8529 5.06439C27.621 5.06439 28.243 5.67432 28.243 6.42742C28.243 7.18051 27.621 7.79045 26.8529 7.79045C26.0848 7.79045 25.4628 7.18051 25.4628 6.42742C25.4628 5.67432 26.0833 5.06439 26.8529 5.06439ZM26.6491 2.06691C23.9647 2.06691 22.4134 4.30533 22.4134 6.37224C22.4134 7.92168 20.3069 7.92168 20.3069 6.37224C20.3069 2.75439 23.0871 0 26.6491 0C30.2111 0 32.9913 2.7544 32.9913 6.37075C32.9913 7.92019 30.8788 7.92019 30.8788 6.37075C30.8803 4.30533 29.3335 2.06691 26.6491 2.06691ZM7.08259 9.29813C8.92137 9.29813 10.894 10.1884 11.8948 11.547C12.8955 10.1899 14.8712 9.12664 16.71 9.12664C19.8339 9.12664 22.5731 11.3621 22.5731 15.6435L22.643 18.5306C22.643 22.9687 25.6286 23.5369 26.8575 23.5369C28.0864 23.5369 30.9594 22.7301 30.9594 18.9422V10.9505C30.9594 9.57551 33.0734 9.57551 33.0734 10.9505V18.9408C32.9989 23.9336 29.3153 25.5993 26.8575 25.5993C24.3982 25.5993 20.535 24.1737 20.535 18.5292L20.4636 15.475C20.4636 11.881 17.9008 11.3621 16.7084 11.3621C14.8301 11.3621 12.9533 12.8921 12.9533 15.475V24.5688C12.9533 25.14 12.4818 25.5993 11.8993 25.5993H11.8963H11.8917C11.3092 25.5993 10.8377 25.14 10.8377 24.5688V15.475C10.8377 12.8921 8.9594 11.3621 7.08259 11.3621C5.20579 11.3621 3.32594 12.3329 3.32746 16.1506V24.5703C3.32746 25.137 2.85598 25.6008 2.27347 25.6008C1.69096 25.6008 1.21948 25.1415 1.21948 24.5703V16.1506C1.21948 11.1279 4.04533 9.29813 7.08259 9.29813Z" fill="#4D9CDF"/>
</svg>
